<svg xmlns="http://www.w3.org/2000/svg" viewBox="0 0 167.21 167.21"><defs><style>.cls-1{fill:none;}.cls-2,.cls-3{fill:#e94a34;}.cls-2{opacity:0.3;isolation:isolate;}</style></defs><g id="Livello_2" data-name="Livello 2"><g id="Artwork"><g id="Stockholm-icons-_-Navigation-_-Route" data-name="Stockholm-icons-/-Navigation-/-Route"><polygon id="Shape" class="cls-1" points="0 0 167.21 0 167.21 167.21 0 167.21 0 0"/><path id="Path-110" class="cls-2" d="M55.74,48.77a7,7,0,1,1,0-13.93h55.73a27.87,27.87,0,1,1,0,55.73H55.74a13.94,13.94,0,1,0,0,27.87h62.7a7,7,0,1,1,0,13.93H55.74a27.87,27.87,0,1,1,0-55.73h55.73a13.94,13.94,0,1,0,0-27.87Z"/><path id="Path-104" class="cls-3" d="M67.63,57.78a7,7,0,0,1-9.85,9.85l-20.9-20.9a7,7,0,0,1,0-9.85L57.78,16a7,7,0,0,1,9.85,9.86l-16,16Z"/><path id="Path-104-Copy" class="cls-3" d="M99.58,141.38a7,7,0,1,0,9.85,9.85l20.9-20.9a7,7,0,0,0,0-9.85l-20.9-20.9a7,7,0,1,0-9.85,9.85l16,16Z"/></g></g></g></svg>