<svg xmlns="http://www.w3.org/2000/svg" viewBox="0 0 167.21 167.21"><defs><style>.cls-1{fill:none;}.cls-2,.cls-4{fill:#e94a34;}.cls-2{opacity:0.3;isolation:isolate;}.cls-3{fill:#cac9ae;}</style></defs><g id="Livello_2" data-name="Livello 2"><g id="Artwork"><g id="Stockholm-icons-_-Navigation-_-Sign-in" data-name="Stockholm-icons-/-Navigation-/-Sign-in"><rect id="bound" class="cls-1" width="167.21" height="167.21"/><path id="Rectangle" class="cls-2" d="M104.51,83.6h0a7,7,0,0,1-7,7H27.87a7,7,0,0,1-7-7h0a7,7,0,0,1,7-7H97.54A7,7,0,0,1,104.51,83.6Z"/><path id="Path-103" class="cls-3" d="M69.71,48.77a7,7,0,1,1-13.93,0v-7A27.87,27.87,0,0,1,83.64,13.93h41.78A27.87,27.87,0,0,1,153.28,41.8v83.61a27.87,27.87,0,0,1-27.86,27.87H83.59a27.86,27.86,0,0,1-27.85-27.87v-7a7,7,0,1,1,13.92,0v7a13.93,13.93,0,0,0,13.93,13.93h41.83a13.93,13.93,0,0,0,13.93-13.93V41.8a13.93,13.93,0,0,0-13.93-13.93H83.64A13.93,13.93,0,0,0,69.71,41.8Z"/><path id="Path-104" class="cls-4" d="M85.65,67.63a7,7,0,0,1,9.85-9.85l20.9,20.9a7,7,0,0,1,0,9.85l-20.9,20.9a7,7,0,0,1-9.85-9.85l16-16Z"/></g></g></g></svg>