<svg fill="none" height="21" viewBox="0 0 21 21" width="21" xmlns="http://www.w3.org/2000/svg" xmlns:xlink="http://www.w3.org/1999/xlink"><clipPath id="a"><path d="m.541016.340332h19.917v20.319h-19.917z"/></clipPath><g clip-path="url(#a)"><path d="m20.4572 10.732c.0015-.6918-.057-1.38239-.175-2.06403h-9.583v3.91203h5.487c-.1124.625-.3503 1.2209-.6994 1.7514-.3491.5306-.802.9849-1.3316 1.3356v2.538h3.274c.9997-.9643 1.7857-2.1278 2.3073-3.4151s.7672-2.6698.7207-4.0579z" fill="#4285f4"/><path d="m10.7001 20.6583c2.4751.0694 4.8834-.8079 6.734-2.453l-3.274-2.538c-.7884.5046-1.6813.823-2.611.931-.9298.108-1.87192.0028-2.75493-.3077s-1.68369-.818-2.34127-1.4841c-.65757-.6661-1.15476-1.4733-1.45383-2.3602h-3.377v2.617c.84606 1.6822 2.14296 3.0963 3.74597 4.0842 1.603.988 3.44903 1.511 5.33206 1.5108z" fill="#34a853"/><path d="m4.99561 12.4459c-.42563-1.2617-.42563-2.62822 0-3.88996v-2.616h-3.374c-.710563 1.41558-1.080594 2.97758-1.080594 4.56146 0 1.5839.370031 3.146 1.080594 4.5615z" fill="#fbbc04"/><path d="m10.7001 4.35813c1.4495-.02407 2.8503.52298 3.9 1.523l2.9-2.9c-1.84-1.72654-4.277-2.673724-6.8-2.643003-1.88363-.000119-3.73016.523542-5.33328 1.512463-1.60311.98893-2.89966 2.40415-3.74475 4.08754l3.375 2.62c.3923-1.20835 1.15342-2.26336 2.17638-3.01672 1.02295-.75336 2.25629-1.16718 3.52665-1.18328z" fill="#ea4335"/></g></svg>