<svg xmlns="http://www.w3.org/2000/svg" xmlns:xlink="http://www.w3.org/1999/xlink" id="Livello_1" x="0" y="0" version="1.1" viewBox="0 0 28 31" style="enable-background:new 0 0 28 31" xml:space="preserve"><style type="text/css">.st0{fill:none}.st1{fill:#c9c9ad}.st2{fill:#eb4833}.st3{fill:#1a201e}</style><g id="Stockholm-icons-_x2F_-Files-_x2F_-Share" transform="translate(1174.000000, 512.000000)"><rect id="bound_106_" width="32.8" height="32.8" x="-1176.4" y="-512.9" class="st0"/><path id="Combined-Shape_112_" d="M-1155.7-486.9l-9.9-5.7c0.7-0.7,1.1-1.5,1.4-2.4l9.9,5.7 C-1155-488.7-1155.5-487.8-1155.7-486.9z M-1165.8-500.5l10-5.9c0.2,1,0.6,1.8,1.2,2.5l-9.7,5.9 C-1164.5-498.9-1165.1-499.8-1165.8-500.5z" class="st1"/><circle id="Oval-77" cx="-1150.4" cy="-507.4" r="4.1" class="st2"/><circle id="Oval-77-Copy" cx="-1150.4" cy="-485.6" r="4.1" class="st2"/><circle id="Oval-77-Copy-2" cx="-1169.6" cy="-496.5" r="4.1" class="st2"/></g><rect width="111.7" height="101" x="-41.8" y="105.9" class="st3" transform="matrix(-1 -1.224647e-16 1.224647e-16 -1 28 312.7797)"/><rect width="111.7" height="101" x="-153.5" y="105.9" class="st2" transform="matrix(-1 -1.224647e-16 1.224647e-16 -1 -195.3333 312.7797)"/><g><g><rect width="111.7" height="101" x="69.8" y="105.9" class="st1" transform="matrix(-1 -1.224647e-16 1.224647e-16 -1 251.3333 312.7797)"/></g></g></svg>