<?xml version="1.0" encoding="utf-8"?>
<!-- Generator: Adobe Illustrator 24.3.0, SVG Export Plug-In . SVG Version: 6.00 Build 0)  -->
<svg version="1.1" xmlns="http://www.w3.org/2000/svg" xmlns:xlink="http://www.w3.org/1999/xlink" x="0px" y="0px"
	 viewBox="0 0 35 30" style="enable-background:new 0 0 35 30;" xml:space="preserve">
<style type="text/css">
	.st0{fill:#EB4833;}
	.st1{fill:#C9C9AD;}
	.st2{fill:#FFFFFF;}
</style>
<g id="Livello_1">
	<g>
		<path class="st0" d="M31.9,27.9c-1.5-1.5-3.1-3-4.6-4.6c2.2-3.6,0.7-7-1.3-8.5c-2.4-1.8-5.8-1.7-8,0.3s-2.6,5.4-1,7.9
			c0.8,1.3,1.9,2.1,3.4,2.6c1.9,0.6,3.7,0.2,5.5-0.9c0.2,0.2,0.3,0.4,0.5,0.6c1.4,1.5,2.9,2.9,4.3,4.3c0.2,0.2,0.5,0.4,0.8,0.3
			C32.4,29.7,32.7,28.7,31.9,27.9z M22.2,24.1c-2.4,0-4.4-2-4.4-4.4s2-4.4,4.4-4.4s4.4,2,4.4,4.4C26.6,22.2,24.6,24.1,22.2,24.1z"/>
		<path d="M4,12L4,12L4,12L4,12z"/>
		<path d="M4,13.4L4,13.4C4,13.5,4,13.5,4,13.4L4,13.4z"/>
		<path d="M9.9,16.6L9.9,16.6L9.9,16.6L9.9,16.6z"/>
		<path d="M11.5,16.5C11.5,16.6,11.5,16.6,11.5,16.5L11.5,16.5L11.5,16.5z"/>
		<path d="M12.9,16.5L12.9,16.5C12.9,16.6,12.9,16.6,12.9,16.5L12.9,16.5z"/>
		<path class="st1" d="M2.5,0v8.9h8.9V0H2.5z M9.9,7.4H4V1.5h5.9V7.4z"/>
		<path class="st1" d="M2.5,21.1V30h8.9v-8.9H2.5z M9.9,28.5H4v-6h5.9V28.5z"/>
		<path class="st1" d="M23.6,0v8.9h8.9V0H23.6z M31,7.5h-6v-6h6V7.5z"/>
		<path d="M11.5,18L11.5,18L11.5,18L11.5,18z"/>
		<path d="M12.9,18L12.9,18L12.9,18L12.9,18z"/>
		<path d="M10,16.5C10,16.6,10,16.6,10,16.5L10,16.5L10,16.5z"/>
		<path d="M11.5,16.6L11.5,16.6L11.5,16.6L11.5,16.6z"/>
		<path d="M11.5,18L11.5,18L11.5,18L11.5,18z"/>
		<path d="M4,12L4,12L4,12L4,12z"/>
		<path d="M4,13.4L4,13.4L4,13.4L4,13.4z"/>
		<path d="M12.9,16.5C12.9,16.6,12.9,16.6,12.9,16.5L12.9,16.5L12.9,16.5z"/>
		<path d="M12.9,18L12.9,18L12.9,18L12.9,18z"/>
		<rect x="11.5" y="16.6" class="st2" width="0" height="0"/>
		<path class="st2" d="M4,13.4L4,13.4L4,13.4C4,13.5,4,13.5,4,13.4L4,13.4z"/>
		<path class="st2" d="M4,12L4,12L4,12L4,12L4,12z"/>
		<rect x="11.5" y="16.6" class="st2" width="0" height="0"/>
		<rect x="11.5" y="18" class="st2" width="0" height="0"/>
		<path class="st2" d="M12.9,18L12.9,18L12.9,18L12.9,18L12.9,18z"/>
		<path class="st2" d="M12.9,16.5C12.9,16.6,12.9,16.6,12.9,16.5L12.9,16.5C12.9,16.6,12.9,16.6,12.9,16.5L12.9,16.5z"/>
		<rect x="5.5" y="3" class="st1" width="2.9" height="2.9"/>
		<rect x="5.5" y="24.1" class="st1" width="2.9" height="2.9"/>
		<rect x="26.6" y="3" class="st1" width="2.9" height="2.9"/>
		<rect x="2.5" y="12" class="st1" width="1.5" height="1.5"/>
		<rect x="4" y="13.5" class="st1" width="1.5" height="1.5"/>
		<rect x="4" y="15" class="st1" width="1.5" height="1.5"/>
		<rect x="5.5" y="15" class="st1" width="1.5" height="1.5"/>
		<rect x="7" y="15" class="st1" width="1.5" height="1.5"/>
		<rect x="7" y="13.5" transform="matrix(-1 -1.224647e-16 1.224647e-16 -1 15.5 28.5421)" class="st1" width="1.5" height="1.5"/>
		<rect x="7" y="12" transform="matrix(-1 -1.224647e-16 1.224647e-16 -1 15.5 25.5842)" class="st1" width="1.5" height="1.5"/>
		<rect x="8.5" y="12" transform="matrix(-1 -1.224647e-16 1.224647e-16 -1 18.5 25.5842)" class="st1" width="1.5" height="1.5"/>
		<rect x="9.9" y="12" transform="matrix(-1 -1.224647e-16 1.224647e-16 -1 21.4 25.5842)" class="st1" width="1.5" height="1.5"/>
		<rect x="11.4" y="12" transform="matrix(-1 -1.224647e-16 1.224647e-16 -1 24.4 25.5842)" class="st1" width="1.5" height="1.5"/>
		
			<rect x="11.4" y="13.5" transform="matrix(-1 -1.224647e-16 1.224647e-16 -1 24.4 28.5421)" class="st1" width="1.5" height="1.5"/>
		
			<rect x="12.9" y="13.5" transform="matrix(-1 -1.224647e-16 1.224647e-16 -1 27.4 28.5421)" class="st1" width="1.5" height="1.5"/>
		
			<rect x="12.9" y="10.5" transform="matrix(-1 -1.224647e-16 1.224647e-16 -1 27.4 22.5842)" class="st1" width="1.5" height="1.5"/>
		
			<rect x="14.5" y="9" transform="matrix(-1 -1.224647e-16 1.224647e-16 -1 30.4188 19.5299)" class="st1" width="1.5" height="1.5"/>
		
			<rect x="16" y="10.5" transform="matrix(-1 -1.224647e-16 1.224647e-16 -1 33.4282 22.5393)" class="st1" width="1.5" height="1.5"/>
		
			<rect x="17.5" y="9" transform="matrix(-1 -1.224647e-16 1.224647e-16 -1 36.4188 19.5487)" class="st1" width="1.5" height="1.5"/>
		
			<rect x="19" y="7.5" transform="matrix(-1 -1.224647e-16 1.224647e-16 -1 39.4188 16.5487)" class="st1" width="1.5" height="1.5"/>
		
			<rect x="19" y="10.5" transform="matrix(-1 -1.224647e-16 1.224647e-16 -1 39.4188 22.5393)" class="st1" width="1.5" height="1.5"/>
		
			<rect x="20.5" y="10.5" transform="matrix(-1 -1.224647e-16 1.224647e-16 -1 42.4188 22.5393)" class="st1" width="1.5" height="1.5"/>
		
			<rect x="20.5" y="9" transform="matrix(-1 -1.224647e-16 1.224647e-16 -1 42.4188 19.5299)" class="st1" width="1.5" height="1.5"/>
		
			<rect x="22" y="10.5" transform="matrix(-1 -1.224647e-16 1.224647e-16 -1 45.4188 22.5393)" class="st1" width="1.5" height="1.5"/>
		<rect x="25" y="10.5" transform="matrix(-1 -1.224647e-16 1.224647e-16 -1 51.6 22.5393)" class="st1" width="1.5" height="1.5"/>
		<rect x="28" y="10.5" transform="matrix(-1 -1.224647e-16 1.224647e-16 -1 57.6 22.5393)" class="st1" width="1.5" height="1.5"/>
		<rect x="19" y="6.1" transform="matrix(-1 -1.224647e-16 1.224647e-16 -1 39.4188 13.6)" class="st1" width="1.5" height="1.5"/>
		<rect x="19" y="4.6" transform="matrix(-1 -1.224647e-16 1.224647e-16 -1 39.4188 10.6)" class="st1" width="1.5" height="1.5"/>
		
			<rect x="17.5" y="3.1" transform="matrix(-1 -1.224647e-16 1.224647e-16 -1 36.42 7.6257)" class="st1" width="1.5" height="1.5"/>
		<rect x="16" y="3.1" transform="matrix(-1 -1.224647e-16 1.224647e-16 -1 33.42 7.6257)" class="st1" width="1.5" height="1.5"/>
		
			<rect x="14.5" y="3.1" transform="matrix(-1 -1.224647e-16 1.224647e-16 -1 30.4188 7.6257)" class="st1" width="1.5" height="1.5"/>
		
			<rect x="13" y="3.1" transform="matrix(-1 -1.224647e-16 1.224647e-16 -1 27.4222 7.6479)" class="st1" width="1.5" height="1.5"/>
		
			<rect x="13" y="1.6" transform="matrix(-1 -1.224647e-16 1.224647e-16 -1 27.4222 4.6479)" class="st1" width="1.5" height="1.5"/>
		
			<rect x="14.5" y="1.6" transform="matrix(-1 -1.224647e-16 1.224647e-16 -1 30.4188 4.6257)" class="st1" width="1.5" height="1.5"/>
		
			<rect x="14.5" y="0.1" transform="matrix(-1 -1.224647e-16 1.224647e-16 -1 30.4188 1.6513)" class="st1" width="1.5" height="1.5"/>
		<rect x="16" y="0.1" transform="matrix(-1 -1.224647e-16 1.224647e-16 -1 33.42 1.6513)" class="st1" width="1.5" height="1.5"/>
		<rect x="16" y="1.6" transform="matrix(-1 -1.224647e-16 1.224647e-16 -1 33.42 4.6257)" class="st1" width="1.5" height="1.5"/>
		
			<rect x="14.5" y="4.6" transform="matrix(-1 -1.224647e-16 1.224647e-16 -1 30.4188 10.6257)" class="st1" width="1.5" height="1.5"/>
		
			<rect x="14.5" y="6.1" transform="matrix(-1 -1.224647e-16 1.224647e-16 -1 30.4188 13.6)" class="st1" width="1.5" height="1.5"/>
		<rect x="13" y="6.1" transform="matrix(-1 -1.224647e-16 1.224647e-16 -1 27.4444 13.6)" class="st1" width="1.5" height="1.5"/>
		
			<rect x="20.5" y="4.6" transform="matrix(-1 -1.224647e-16 1.224647e-16 -1 42.4188 10.6)" class="st1" width="1.5" height="1.5"/>
		<rect x="20.5" y="1.4" transform="matrix(-1 -1.224647e-16 1.224647e-16 -1 42.4188 4.3)" class="st1" width="1.5" height="1.5"/>
		<rect x="20.5" transform="matrix(-1 -1.224647e-16 1.224647e-16 -1 42.4188 1.5)" class="st1" width="1.5" height="1.5"/>
		
			<rect x="17.5" y="6.1" transform="matrix(-1 -1.224647e-16 1.224647e-16 -1 36.4188 13.6)" class="st1" width="1.5" height="1.5"/>
		
			<rect x="10.1" y="10.5" transform="matrix(-1 -1.224647e-16 1.224647e-16 -1 21.6093 22.5842)" class="st1" width="1.5" height="1.5"/>
		<rect x="11.4" y="15" transform="matrix(-1 -1.224647e-16 1.224647e-16 -1 24.4 31.5421)" class="st1" width="1.5" height="1.5"/>
		
			<rect x="10" y="16.5" transform="matrix(-1 -1.224647e-16 1.224647e-16 -1 21.4211 34.521)" class="st1" width="1.5" height="1.5"/>
		<rect x="11.5" y="18" transform="matrix(-1 -1.224647e-16 1.224647e-16 -1 24.45 37.55)" class="st1" width="1.5" height="1.5"/>
		<rect x="12.9" y="19.5" transform="matrix(-1 -1.224647e-16 1.224647e-16 -1 27.4 40.5)" class="st1" width="1.5" height="1.5"/>
		<rect x="12.9" y="22.5" transform="matrix(-1 -1.224647e-16 1.224647e-16 -1 27.4 46.6)" class="st1" width="1.5" height="1.5"/>
		<rect x="12.9" y="25.5" transform="matrix(-1 -1.224647e-16 1.224647e-16 -1 27.4 52.6)" class="st1" width="1.5" height="1.5"/>
		
			<rect x="13" y="16.5" transform="matrix(-1 -1.224647e-16 1.224647e-16 -1 27.4645 34.5355)" class="st1" width="1.5" height="1.5"/>
		<rect x="7" y="10.5" transform="matrix(-1 -1.224647e-16 1.224647e-16 -1 15.5 22.5842)" class="st1" width="1.5" height="1.5"/>
		
			<rect x="5.5" y="10.5" transform="matrix(-1 -1.224647e-16 1.224647e-16 -1 12.5 22.5842)" class="st1" width="1.5" height="1.5"/>
		<rect x="4" y="10.5" transform="matrix(-1 -1.224647e-16 1.224647e-16 -1 9.5 22.5842)" class="st1" width="1.5" height="1.5"/>
		<rect x="7" y="16.5" class="st1" width="1.5" height="1.5"/>
		<rect x="7" y="18" class="st1" width="1.5" height="1.5"/>
		<rect x="5.5" y="18" class="st1" width="1.5" height="1.5"/>
		<rect x="4" y="18" class="st1" width="1.5" height="1.5"/>
		<rect x="8.5" y="15" class="st1" width="1.5" height="1.5"/>
		<rect x="2.5" y="15" class="st1" width="1.5" height="1.5"/>
	</g>
</g>
<g id="Livello_2">
</g>
</svg>
