<svg xmlns="http://www.w3.org/2000/svg" viewBox="0 0 35 24.7"><defs><style>.cls-1{fill:#e84934;}.cls-2{fill:#c8c8ac;}</style></defs><g id="Livello_2" data-name="Livello 2"><g id="Livello_1-2" data-name="Livello 1"><g id="Stockholm-icons-_-Code-_-Code" data-name="Stockholm-icons-/-Code-/-Code"><path id="Combined-Shape" class="cls-1" d="M25.89,6.68A1.59,1.59,0,1,1,28.2,4.5l6.37,6.76a1.6,1.6,0,0,1,0,2.18L28.2,20.2A1.59,1.59,0,1,1,25.89,18l5.33-5.67Zm-16.78,0L3.78,12.35,9.11,18A1.59,1.59,0,1,1,6.8,20.2L.43,13.44a1.6,1.6,0,0,1,0-2.18L6.8,4.5A1.59,1.59,0,1,1,9.11,6.68Z"/><path id="Rectangle-28" class="cls-2" d="M20.79.05h0a1.59,1.59,0,0,1,1.13,2L16.15,23.52a1.58,1.58,0,0,1-1.94,1.12h0a1.59,1.59,0,0,1-1.13-1.95L18.85,1.18A1.59,1.59,0,0,1,20.79.05Z"/></g></g></g></svg>