<svg xmlns="http://www.w3.org/2000/svg" viewBox="0 0 185.79 185.79"><defs><style>.cls-1{fill:none;}.cls-2,.cls-3{fill:#e94a34;}.cls-2{opacity:0.3;isolation:isolate;}</style></defs><g id="Livello_2" data-name="Livello 2"><g id="Artwork"><g id="Stockholm-icons-_-Navigation-_-Exchange" data-name="Stockholm-icons-/-Navigation-/-Exchange"><polygon id="Shape" class="cls-1" points="0 0 185.79 0 185.79 185.79 0 185.79 0 0"/><path id="Rectangle-Copy" class="cls-2" d="M131.6,92.89h0a7.75,7.75,0,0,0-7.74-7.74H46.45a7.74,7.74,0,0,0-7.74,7.74h0a7.74,7.74,0,0,0,7.74,7.75h77.41A7.75,7.75,0,0,0,131.6,92.89Z"/><path id="Path-104-Copy" class="cls-3" d="M110.64,110.64a7.74,7.74,0,0,0,11,11l23.23-23.22a7.75,7.75,0,0,0,0-11L121.59,64.2a7.74,7.74,0,0,0-11,10.94l17.75,17.75Z"/></g></g></g></svg>