<?xml version="1.0" encoding="utf-8"?>
<!-- Generator: Adobe Illustrator 24.3.0, SVG Export Plug-In . SVG Version: 6.00 Build 0)  -->
<svg version="1.1" id="Livello_1" xmlns="http://www.w3.org/2000/svg" xmlns:xlink="http://www.w3.org/1999/xlink" x="0px" y="0px"
	 viewBox="0 0 28 31" style="enable-background:new 0 0 28 31;" xml:space="preserve">
<style type="text/css">
	.st0{fill:none;}
	.st1{fill:#C9C9AD;}
	.st2{fill:#EB4833;}
	.st3{fill:#1A201E;}
</style>
<g id="Stockholm-icons-_x2F_-Files-_x2F_-Share" transform="translate(1174.000000, 512.000000)">
	<rect id="bound_106_" x="-1176.4" y="-512.9" class="st0" width="32.8" height="32.8"/>
	<path id="Combined-Shape_112_" class="st1" d="M-1155.7-486.9l-9.9-5.7c0.7-0.7,1.1-1.5,1.4-2.4l9.9,5.7
		C-1155-488.7-1155.5-487.8-1155.7-486.9z M-1165.8-500.5l10-5.9c0.2,1,0.6,1.8,1.2,2.5l-9.7,5.9
		C-1164.5-498.9-1165.1-499.8-1165.8-500.5z"/>
	<circle id="Oval-77" class="st2" cx="-1150.4" cy="-507.4" r="4.1"/>
	<circle id="Oval-77-Copy" class="st2" cx="-1150.4" cy="-485.6" r="4.1"/>
	<circle id="Oval-77-Copy-2" class="st2" cx="-1169.6" cy="-496.5" r="4.1"/>
</g>
<rect x="-41.8" y="105.9" transform="matrix(-1 -1.224647e-16 1.224647e-16 -1 28 312.7797)" class="st3" width="111.7" height="101"/>
<rect x="-153.5" y="105.9" transform="matrix(-1 -1.224647e-16 1.224647e-16 -1 -195.3333 312.7797)" class="st2" width="111.7" height="101"/>
<g>
	<g>
		
			<rect x="69.8" y="105.9" transform="matrix(-1 -1.224647e-16 1.224647e-16 -1 251.3333 312.7797)" class="st1" width="111.7" height="101"/>
	</g>
</g>
</svg>
