<?xml version="1.0" encoding="utf-8"?>
<!-- Generator: Adobe Illustrator 24.3.0, SVG Export Plug-In . SVG Version: 6.00 Build 0)  -->
<svg version="1.1" id="Livello_1" xmlns="http://www.w3.org/2000/svg" xmlns:xlink="http://www.w3.org/1999/xlink" x="0px" y="0px"
	 viewBox="0 0 459.9 116.1" style="enable-background:new 0 0 459.9 116.1;" xml:space="preserve">
<style type="text/css">
	.st0{fill:#C9C9AD;}
	.st1{fill:#F39185;}
	.st2{fill:#EF6D5C;}
	.st3{fill:#EB4833;}
</style>
<g id="Livello_2_1_">
	<g id="Livello_1-2">
		<path class="st0" d="M101.3,89.8c-2.5-0.1-8.2-0.2-12.2-0.2c-4.3,0-9.5,0.1-12.1,0.2V88c2.7-0.7,3.8-2.2,3.8-5.5
			c-0.2-3.5-0.7-6.9-1.4-10.3l-6.8-38.3L48.1,90.5h-2L19.9,32.9l-6,34.9c-0.6,3.1-0.9,6.2-0.9,9.3c0,6,1.8,9.8,6.5,10.9v1.8
			c-2.6-0.1-7.3-0.2-11.6-0.2c-4,0-5.3,0.1-7.8,0.2V88c5.1-1.7,6.7-7.9,8.9-20.6L20.2,2.3h2.9L52.8,67L81,2.3h2.9l10.9,69.2
			c1.3,8.1,2.5,15,6.5,16.5V89.8z"/>
		<path class="st0" d="M133.1,116.1c-1.6,0-6.5-0.1-11.3-0.1s-9.8,0.1-11.4,0.1v-1.8c5.7-1.4,10-5.2,15.5-19.6l-19.4-46.4
			c-3.5-8.5-5.4-11.5-8.6-12.9v-1.8c1.6,0,5.4,0.1,9.6,0.1c4.5,0,15.2-0.1,16.8-0.1v1.8c-2.9,0.6-3.9,2.2-3.9,4.5s1.2,5.4,2.6,8.7
			l10.5,24.8l3.4-9.6c3.2-8.9,5-17.3,5-20.2c0-4.9-2.2-7-5.3-8.1v-1.8h2.1l6.4,0.1h2.1c7.4,0,7.5-0.1,9.2-0.1v1.8
			c-4.5,2-7.3,8.2-10.1,16.5l-14.6,41.9c-2.2,6.2-3.6,11.2-3.6,14.6s1.4,5.5,5.1,6.1V116.1z"/>
		<path class="st0" d="M311.9,82.2c-1.9,2.9-5.6,8.1-12.4,8.1c-4.5,0-8.8-1.5-10.6-6.2c-3.8,4-8.8,6.2-16,6.2
			c-8.3,0-19.6-1.7-19.6-19V49.1c0-7.2-0.1-9.6-3.6-10.6v-1.8c6.3,0.1,12.5-1.1,18.3-3.7v39.1c0,10.1,4.5,12.9,10.8,12.9
			c3.6,0.1,7-1.3,9.5-3.9c-0.1-0.9-0.1-1.7-0.1-2.6V49.1c0-7.2-0.1-9.6-3.6-10.6v-1.8c6.3,0.1,12.5-1.2,18.2-3.7v43.4
			c0,4.7,1.3,6.7,3.6,6.7c1.6,0,3.1-1,4.6-2.6L311.9,82.2z"/>
		<path class="st0" d="M339.7,89.8c-2.6-0.1-8-0.2-12.3-0.2s-9.8,0.1-12.3,0.2V88c3.5-0.7,5-1.3,5-10.7V49.1c0-7.2-0.1-9.6-3.6-10.6
			v-1.8c6.3,0.1,12.5-1.2,18.2-3.7v44.2c0,9.4,1.5,10,5,10.7L339.7,89.8z M327.3,28.7c-3.9,0-7.1-3.1-7.2-7.1c0,0,0-0.1,0-0.1
			c0-4.5,3.2-7.6,7.2-7.6c4-0.2,7.5,2.9,7.7,7c0,0.2,0,0.4,0,0.6C335,25.5,331.8,28.7,327.3,28.7z"/>
		<path class="st0" d="M404.4,84.2c-2.2,3.2-5.8,6.1-10.7,6.1c-3.9,0-7-1.3-8.7-5.1c-3.7,3.4-8.6,5.2-13.6,5.1
			c-14.9,0-26.8-11-26.8-28.2c0-16.6,12.7-28.9,28.6-28.9c3.8-0.1,7.6,0.9,10.8,3.1V16c0-7.2-0.1-9.6-3.6-10.6V3.6
			c6.3,0.1,12.5-1.2,18.2-3.6v76.5c0,5.4,0.8,6.7,2.7,6.7c0.8,0,1.6-0.2,2.2-0.6L404.4,84.2z M384,41.2c-1.3-2.5-4.7-4.5-9.9-4.5
			c-9,0-13.3,6.8-13.3,25.3c0,15.5,5,23.7,14.1,23.7c3.4,0.1,6.8-1.1,9.3-3.4c-0.2-1.2-0.2-2.4-0.2-3.6L384,41.2z"/>
		<path class="st0" d="M459.4,77.5c-5.5,8.6-13,13.3-22.2,13.3c-15,0-28.6-10.8-28.6-28.7c0-18.3,14.2-28.9,27.7-28.9
			c11.5,0,23.5,5.7,23.5,23.4h-36.7V58c0,15.2,8.1,25.2,19.5,25.2c5.4,0,10.5-2.2,15.6-7.2L459.4,77.5z M445.4,52.8
			c0-10.7-3-16.5-9.4-16.5c-6.8,0-11.3,7.5-12.5,16.5H445.4z"/>
		<path class="st0" d="M240.8,81.9l-0.4,0.5c-0.8-0.4-1.6-0.6-2.5-0.5c-7.5,0-13,8.9-32.2,8.9c-15.1,0-27-5.5-35-14h13.9
			c5.4,6.9,13.1,10.2,22.1,10.2c7.3,0,13.6-2.2,17.8-6.7v-3.6h15.8C240.3,78.6,240.5,80.3,240.8,81.9z"/>
		<path class="st1" d="M238.5,7.5v23.3h-1.8c-0.9-2.7-2.1-5.4-3.5-7.9c-1-1.8-2.1-3.4-3.3-5c-1.2-1.5-2.5-2.9-4-4.2
			c-1.4-1.2-2.9-2.3-4.6-3.1c-4.2-2.2-9-3.3-13.7-3.3c-4.8-0.1-9.6,1-13.8,3.2c-1.9,1-3.7,2.2-5.3,3.7c-1.7,1.5-3.2,3.2-4.5,5.1
			c-1.3,1.9-2.5,4-3.4,6.2c-2.6,6-4,13.5-4,22.3c0,0.5,0,1,0,1.4s0,0.9,0,1.4s0,0.7,0,1c0,0.6,0.1,1.2,0.1,1.8
			c0.1,0.8,0.1,1.5,0.2,2.3c0,0.1,0,0.1,0,0.2c0.1,0.8,0.2,1.5,0.3,2.2c0,0.1,0,0.2,0.1,0.3c0.6,4.3,1.9,8.5,3.7,12.5h-14.7
			c-3.2-4.9-5.3-10.4-6.3-16.2c-0.1-0.7-0.2-1.5-0.3-2.2c-0.1-0.6-0.1-1.1-0.2-1.7c0-0.4-0.1-0.8-0.1-1.1s-0.1-0.9-0.1-1.4
			s0-0.9,0-1.3c0-0.7,0-1.3,0-2c0.9-21,16-41.4,47.7-41.4C220.9,3.5,229.1,7.5,238.5,7.5z"/>
		<path class="st2" d="M238.5,30.8v7.9h-1.8c-1.5-4.7-3.9-9-6.8-12.9c-1.2-1.5-2.5-2.9-4-4.2c-1.4-1.2-2.9-2.3-4.6-3.1
			c-4.2-2.2-9-3.3-13.7-3.3c-4.8-0.1-9.6,1-13.8,3.2c-1.9,1-3.7,2.2-5.3,3.6c-1.7,1.5-3.2,3.3-4.5,5.1c-4.2,6-6.8,14.2-7.3,24.4
			c0-0.3,0-0.7,0-1c0-0.9-0.1-1.9-0.1-2.8c0-8.8,1.4-16.2,4-22.3c0.9-2.2,2-4.2,3.4-6.2c1.3-1.9,2.8-3.6,4.5-5.1
			c1.6-1.4,3.4-2.7,5.3-3.7c4.3-2.2,9-3.3,13.8-3.2c4.8-0.1,9.5,1,13.7,3.3c1.6,0.9,3.2,1.9,4.6,3.1c1.5,1.3,2.8,2.7,4,4.2
			c1.2,1.6,2.4,3.2,3.3,5c1.4,2.5,2.6,5.2,3.5,7.9L238.5,30.8z"/>
		<path class="st3" d="M238.5,38.7v7.9h-1.8c-1.5-4.7-3.9-9-6.8-12.9c-2.3-3-5.2-5.5-8.6-7.3c-4.2-2.2-9-3.3-13.7-3.3
			c-4.8-0.1-9.6,1-13.8,3.2c-3.9,2.1-7.3,5.1-9.8,8.8c-3.6,5.2-6.1,12.1-7,20.5c-0.1-0.7-0.1-1.5-0.2-2.3c0-0.6-0.1-1.2-0.1-1.8
			c0.5-10.2,3.1-18.4,7.3-24.4c1.3-1.9,2.8-3.6,4.6-5.2c1.6-1.4,3.4-2.7,5.3-3.6c4.3-2.2,9-3.3,13.8-3.2c4.8-0.1,9.5,1,13.7,3.3
			c1.6,0.9,3.2,1.9,4.6,3.1c1.5,1.3,2.8,2.7,4,4.2c3,3.9,5.3,8.3,6.8,12.9L238.5,38.7z"/>
		<path class="st1" d="M246.1,53.6v1.8c-2.7,0.5-4.2,1.5-5,4c-0.7,2.2-0.9,5.7-0.9,10.9c0,0.2,0,0.4,0,0.6h-15.7
			c0-5.7-0.1-9.2-0.8-11.5c-0.8-2.6-2.2-3.5-5.1-4v-1.8l5,0.1l0,0c2.9,0,6.2,0.1,8.7,0.1s5.9,0,8.8-0.1h0.1
			C243.2,53.7,245.1,53.6,246.1,53.6z"/>
	</g>
</g>
</svg>
